<?xml version="1.0" encoding="UTF-8" standalone="no"?>
<svg width="16px" height="16px" viewBox="0 0 16 16" version="1.1" xmlns="http://www.w3.org/2000/svg" xmlns:xlink="http://www.w3.org/1999/xlink">
    <!-- Generator: Sketch 39.1 (31720) - http://www.bohemiancoding.com/sketch -->
    <title>noun_61538_cc</title>
    <desc>Created with Sketch.</desc>
    <defs></defs>
    <g id="v2" stroke="none" stroke-width="1" fill="none" fill-rule="evenodd">
        <g id="--store-locator-web-copy-4" transform="translate(-101.000000, -524.000000)" fill="#000000">
            <g id="noun_61538_cc" transform="translate(101.000000, 524.000000)">
                <g id="Group">
                    <g id="Shape">
                        <path d="M9.7312,7.0016 C10.0896,7.552 10.0896,8.44832 9.7312,8.9984 L8,12 L6.2688,8.9984 C5.9104,8.448 5.9104,7.552 6.2688,7.0016 L8,4 L9.7312,7.0016 L9.7312,7.0016 Z M8.9984,8 C8.9984,7.4464 8.5536,7.0016 8,7.0016 C7.4464,7.0016 7.0016,7.4464 7.0016,8 C7.0016,8.5536 7.4464,8.9984 8,8.9984 C8.5536,8.9984 8.9984,8.5536 8.9984,8 L8.9984,8 Z" transform="translate(8.000000, 8.000000) rotate(34.000000) translate(-8.000000, -8.000000) "></path>
                        <path d="M8,0 C12.4192,0 16,3.5808 16,8 C16,12.4192 12.4192,16 8,16 C3.5808,16 0,12.4192 0,8 C0,3.5808 3.5808,0 8,0 L8,0 Z M14,8 C14,4.6848 11.3152,2 8,2 C4.6848,2 2,4.6848 2,8 C2,11.3152 4.6848,14 8,14 C11.3152,14 14,11.3152 14,8 L14,8 Z"></path>
                    </g>
                </g>
            </g>
        </g>
    </g>
</svg>