<?xml version="1.0" encoding="UTF-8" standalone="no"?>
<svg width="14px" height="14px" viewBox="0 0 14 14" version="1.1" xmlns="http://www.w3.org/2000/svg" xmlns:xlink="http://www.w3.org/1999/xlink">
    <!-- Generator: Sketch 39.1 (31720) - http://www.bohemiancoding.com/sketch -->
    <title>noun_65780_cc</title>
    <desc>Created with Sketch.</desc>
    <defs></defs>
    <g id="v2" stroke="none" stroke-width="1" fill="none" fill-rule="evenodd">
        <g id="store-locator-mobile-4-@2x" transform="translate(-259.000000, -390.000000)" fill="#000000">
            <g id="Group-2" transform="translate(44.000000, 365.000000)">
                <g id="noun_65780_cc" transform="translate(215.000000, 25.000000)">
                    <g id="Group">
                        <path d="M13.5153846,10.696 L10.1230769,8.064 C9.90769231,7.896 9.69230769,7.952 9.53076923,8.12 L9.26153846,8.4 L8.4,9.296 C8.13076923,9.576 7.7,9.576 7.37692308,9.296 L4.2,6.328 C4.03846154,6.216 3.98461538,5.992 3.98461538,5.768 C3.98461538,5.544 4.03846154,5.376 4.2,5.208 L4.95384615,4.424 L5.11538462,4.256 C5.27692308,4.088 5.27692308,3.808 5.16923077,3.64 L2.85384615,0.168 C2.8,0.112 2.69230769,0 2.53076923,0 C2.42307692,0 2.26153846,0 2.15384615,0.112 L2.15384615,0.112 L0.807692308,1.232 C0.269230769,1.68 0.161538462,2.408 0.376923077,3.08 C2.15384615,8.008 5.97692308,11.704 10.8230769,13.384 C11.3615385,13.552 12.0076923,13.384 12.3846154,12.936 C12.6538462,12.6 13.3,11.76 13.4076923,11.648 C13.4615385,11.592 13.5153846,11.48 13.5692308,11.424 C13.6769231,11.312 13.6769231,11.2 13.6769231,11.032 C13.7307692,10.864 13.6230769,10.752 13.5153846,10.696 L13.5153846,10.696 Z" id="Shape"></path>
                    </g>
                </g>
            </g>
        </g>
    </g>
</svg>